{"title":"Ax.Men.S05E09.Rygaard.vs.Rygaard.HDTV.XviD-LaMeR","uid":7099952,"size":367388276,"categoryP":"video","categoryS":"tv_shows","magnet":"?xt=urn:btih:5b6526283778bbbc30eb293410aea58a5fdcdbb8&amp;dn=Ax.Men.S05E09.Rygaard.vs.Rygaard.HDTV.XviD-LaMeR&amp;tr=udp%3A%2F%2Ftracker.openbittorrent.com%3A80&amp;tr=udp%3A%2F%2Fopen.demonii.com%3A1337&amp;tr=udp%3A%2F%2Ftracker.coppersurfer.tk%3A6969&amp;tr=udp%3A%2F%2Fexodus.desync.com%3A6969","seeders":1,"leechers":2,"uploader":"Masterzilla","files":-1,"time":1331661749,"description":"Ax.Men.S05E09.Rygaard.vs.Rygaard.HDTV.XviD-LaMeR.avi\n\nComplete name : Ax.Men.S05E09.Rygaard.vs.Rygaard.HDTV.XviD-LaMeR.avi\nFormat : AVI\nFormat/Info : Audio Video Interleave\nFile size : 350 MiB\nDuration : 43mn 59s\nOverall bit rate mode : Variable\nOverall bit rate : 1 113 Kbps\n\nVideo\nID : 0\nFormat : MPEG-4 Visual\nFormat profile : Simple@L3\nFormat settings, BVOP : No\nFormat settings, QPel : No\nFormat settings, GMC : No warppoints\nFormat settings, Matrix : Default (H.263)\nCodec ID : XVID\nCodec ID/Hint : XviD\nDuration : 43mn 59s\nBit rate : 974 Kbps\nWidth : 624 pixels\nHeight : 352 pixels\nDisplay aspect ratio : 16:9\nFrame rate : 29.970 fps\nColor space : YUV\nChroma subsampling : 4:2:0\nBit depth : 8 bits\nScan type : Progressive\nCompression mode : Lossy\nBits/(Pixel*Frame) : 0.148\nStream size : 307 MiB (88%)\nWriting library : XviD 63\n\nAudio\nID : 1\nFormat : MPEG Audio\nFormat version : Version 1\nFormat profile : Layer 3\nMode : Joint stereo\nMode extension : MS Stereo\nCodec ID : 55\nCodec ID/Hint : MP3\nDuration : 31mn 38s\nSource duration : 43mn 59s\nBit rate mode : Variable\nBit rate : 125 Kbps\nChannel(s) : 2 channels\nSampling rate : 48.0 KHz\nCompression mode : Lossy\nStream size : 39.4 MiB (11%)\nAlignment : Aligned on interleaves\nInterleave, duration : 24 ms (0.72 video frame)","torrent":{"xt":"urn:btih:5b6526283778bbbc30eb293410aea58a5fdcdbb8","amp;dn":"Ax.Men.S05E09.Rygaard.vs.Rygaard.HDTV.XviD-LaMeR","amp;tr":["udp%3A%2F%2Ftracker.openbittorrent.com%3A80","udp%3A%2F%2Fopen.demonii.com%3A1337","udp%3A%2F%2Ftracker.coppersurfer.tk%3A6969","udp%3A%2F%2Fexodus.desync.com%3A6969"],"infoHash":"5b6526283778bbbc30eb293410aea58a5fdcdbb8","infoHashBuffer":{"type":"Buffer","data":[91,101,38,40,55,120,187,188,48,235,41,52,16,174,165,138,95,220,219,184]},"announce":[],"urlList":[]}}